<svg xmlns="http://www.w3.org/2000/svg" id="图层_1" width="137.3" height="46" data-name="图层 1" viewBox="0 0 137.3 46"><defs><style>.cls-1{fill:#fff}.cls-2{fill:#c8102e}</style></defs><path d="M126.8 0H8.9L6.6.2 4.4.9a7.9 7.9 0 0 0-1.8 1.4 5.9 5.9 0 0 0-1.3 1.8 5.7 5.7 0 0 0-.7 2.2 8.2 8.2 0 0 0-.2 2.2 4.1 4.1 0 0 0-.1 1.1v26.8a4.1 4.1 0 0 0 .1 1.1 8.2 8.2 0 0 0 .2 2.2 5.7 5.7 0 0 0 .7 2.2 5.9 5.9 0 0 0 1.3 1.8 7.9 7.9 0 0 0 1.8 1.4l2.2.7 2.3.2h120.2l2.3-.2 2.2-.7a7.9 7.9 0 0 0 1.8-1.4 5.9 5.9 0 0 0 1.3-1.8 5.7 5.7 0 0 0 .7-2.2 16.6 16.6 0 0 0 .3-2.2v-29a16.6 16.6 0 0 0-.3-2.2 5.7 5.7 0 0 0-.7-2.2 5.9 5.9 0 0 0-1.3-1.8 7.9 7.9 0 0 0-1.8-1.4l-2.2-.7-2.3-.2h-2.3z" transform="translate(-.3)"/><path d="M50.5 30.7h-4.9L44.4 34h-2.2L47 21.7h2L53.9 34h-2.2zM46.2 29h3.6l-1.3-3.5a15.6 15.6 0 0 1-.5-1.6c-.2.6-.3 1.1-.5 1.6z" class="cls-1" transform="translate(-.3)"/><path d="M54.9 27.1v-2.2h1.9c.1.3.1.7.2 1.1a3.5 3.5 0 0 1 2.7-1.3 3.1 3.1 0 0 1 1.7.5 2.9 2.9 0 0 1 1.3 1.4 6.2 6.2 0 0 1 .5 2.5 6.1 6.1 0 0 1-.6 2.8 4.1 4.1 0 0 1-1.5 1.7 4.4 4.4 0 0 1-2.3.6 3.9 3.9 0 0 1-1.8-.4v3.8l-2.1.2zm5.5 4.7a4.4 4.4 0 0 0 .6-2.5 3.6 3.6 0 0 0-.5-2.3 1.7 1.7 0 0 0-1.4-.7 2 2 0 0 0-1.1.3 3.9 3.9 0 0 0-1 .8v4.9l.7.2h.8a2.3 2.3 0 0 0 1.9-.7z" class="cls-1" transform="translate(-.3)"/><path d="M64.5 27.1a17 17 0 0 0-.1-2.2h2a3.7 3.7 0 0 1 .1 1.1 3.8 3.8 0 0 1 2.8-1.3 3.4 3.4 0 0 1 1.7.5 3.5 3.5 0 0 1 1.3 1.4 6.2 6.2 0 0 1 .4 2.5 6.1 6.1 0 0 1-.5 2.8 5 5 0 0 1-1.5 1.7 4.4 4.4 0 0 1-2.3.6 3.9 3.9 0 0 1-1.8-.4v3.8l-2.1.2zm5.5 4.7a4.4 4.4 0 0 0 .6-2.5 4.4 4.4 0 0 0-.5-2.3 1.9 1.9 0 0 0-1.4-.7 2 2 0 0 0-1.1.3 3.9 3.9 0 0 0-1 .8v4.9l.7.2h.8a2.4 2.4 0 0 0 1.9-.7z" class="cls-1" transform="translate(-.3)"/><path d="M76.7 33.4a5.3 5.3 0 0 1-2.1-2.1 7.2 7.2 0 0 1-.7-3.3 7.2 7.2 0 0 1 .8-3.5 5.4 5.4 0 0 1 2.3-2.2 6.6 6.6 0 0 1 3.2-.7l2 .2a7.5 7.5 0 0 1 1.8.7l-.5 1.6a6.6 6.6 0 0 0-3.2-.8 4 4 0 0 0-2.2.5 3.3 3.3 0 0 0-1.5 1.6 5.3 5.3 0 0 0-.5 2.6 5.9 5.9 0 0 0 .4 2.3 2.9 2.9 0 0 0 1.3 1.6 3.6 3.6 0 0 0 2.2.6h1.2l1.1-.3v-2.6h-2.8V28h4.9v5.1a9.7 9.7 0 0 1-2.2.8 9.3 9.3 0 0 1-2.3.2 6.3 6.3 0 0 1-3.2-.7z" class="cls-1" transform="translate(-.3)"/><path d="M91.9 34c-.1-.4-.1-.8-.2-1.2a2.7 2.7 0 0 1-1.2.9 3.4 3.4 0 0 1-1.8.4 3.2 3.2 0 0 1-1.4-.3 2.2 2.2 0 0 1-1-.9 2.8 2.8 0 0 1 .6-3.6 4.8 4.8 0 0 1 3.1-.8h1.7v-.2a2.6 2.6 0 0 0-.5-1.7 2.5 2.5 0 0 0-1.5-.5l-1.4.2-1.4.5-.3-1.5 1.5-.5 1.9-.2a4 4 0 0 1 2 .4 2.2 2.2 0 0 1 1.3 1.2 5.2 5.2 0 0 1 .5 2.3V34zm-1.3-1.7a3.1 3.1 0 0 0 1.1-.8v-1.7h-1.4a2.6 2.6 0 0 0-1.8.5 1.3 1.3 0 0 0-.5 1.1 1.2 1.2 0 0 0 .4 1 1.2 1.2 0 0 0 .9.3 2.8 2.8 0 0 0 1.3-.4z" class="cls-1" transform="translate(-.3)"/><path d="M95.6 31.8V21h2.1v10.4c0 .4 0 .7.2.8a.6.6 0 0 0 .6.3h.5l.3 1.5-.7.2h-.8c-1.5-.1-2.2-.8-2.2-2.4z" class="cls-1" transform="translate(-.3)"/><path d="M100.8 31.8V21h2.1v10.4c0 .4 0 .7.2.8a.6.6 0 0 0 .6.3h.5l.3 1.5-.7.2h-.9c-1.4-.1-2.1-.8-2.1-2.4z" class="cls-1" transform="translate(-.3)"/><path d="M113.1 29.7h-5.9c.1 1.9 1 2.9 2.7 2.9l1.3-.2 1.3-.4.4 1.4a7.4 7.4 0 0 1-3.4.7 4.3 4.3 0 0 1-2.4-.5 3.3 3.3 0 0 1-1.5-1.6 4.9 4.9 0 0 1-.5-2.5 5.5 5.5 0 0 1 .5-2.6 3.3 3.3 0 0 1 1.5-1.6 3.8 3.8 0 0 1 2.2-.6 3.7 3.7 0 0 1 2.1.6 3.4 3.4 0 0 1 1.3 1.6 5.4 5.4 0 0 1 .4 2.2zm-2-1.3a2.6 2.6 0 0 0-.6-1.7 1.7 1.7 0 0 0-1.3-.5 2.1 2.1 0 0 0-1.3.5 3.4 3.4 0 0 0-.7 1.7z" class="cls-1" transform="translate(-.3)"/><path d="M114.8 27.2a22 22 0 0 0-.1-2.3h2c0 .2.1.5.1.9v.8l.8-1a2.4 2.4 0 0 1 .8-.6 1.7 1.7 0 0 1 1-.3h.9l-.3 1.8h-.7a1.6 1.6 0 0 0-1.2.4 4.5 4.5 0 0 0-1.2 1.2V34h-2.1z" class="cls-1" transform="translate(-.3)"/><path d="M121.5 37.7l-.7-.2.4-1.5h1.1q1.4 0 2.1-1.8v-.3l-3.4-9.2h2.3l1.7 5.1.5 2c.2-.6.3-1.3.6-2l1.7-5.1h2.2l-3.4 9.2a6.9 6.9 0 0 1-1 2.1 4.9 4.9 0 0 1-1.3 1.2 3.4 3.4 0 0 1-1.8.4z" class="cls-1" transform="translate(-.3)"/><path d="M42.2 10.8H46v1h-2.7v1.7h2.4v.9h-2.4v1.9H46v.9h-3.8z" class="cls-1" transform="translate(-.3)"/><path d="M48.6 14l-2-3.2h1.2l1.4 2.3 1.4-2.3h1.2l-2 3.1 2.2 3.3h-1.3l-1.5-2.5-1.6 2.5h-1.2z" class="cls-1" transform="translate(-.3)"/><path d="M52.8 10.8h1.7a3 3 0 0 1 1.8.5 1.7 1.7 0 0 1 .7 1.5 2 2 0 0 1-.3 1.1 2.7 2.7 0 0 1-.8.7 2.1 2.1 0 0 1-1.2.3h-.8v2.4h-1.1zm2.7 2.9a1 1 0 0 0 .4-.9 1 1 0 0 0-.4-.9l-1-.2h-.6v2.2h.6a1.3 1.3 0 0 0 1-.2z" class="cls-1" transform="translate(-.3)"/><path d="M58.1 10.8h1.1v5.5h2.6v.9h-3.7z" class="cls-1" transform="translate(-.3)"/><path d="M63.5 16.9a2.9 2.9 0 0 1-1.1-1.1 4.7 4.7 0 0 1-.3-1.7 3.4 3.4 0 0 1 .4-1.8 2 2 0 0 1 1.1-1.1 3.3 3.3 0 0 1 1.7-.4 3.1 3.1 0 0 1 1.7.4 2.3 2.3 0 0 1 1.1 1.1 4.3 4.3 0 0 1 .3 1.7 3.3 3.3 0 0 1-.4 1.7 2.5 2.5 0 0 1-1.1 1.2 3.3 3.3 0 0 1-1.7.4 3.1 3.1 0 0 1-1.7-.4zm2.9-.8a1.6 1.6 0 0 0 .6-.8 2.8 2.8 0 0 0 .3-1.3 5 5 0 0 0-.2-1.2 3.1 3.1 0 0 0-.7-.9 2 2 0 0 0-1.1-.3 1.7 1.7 0 0 0-1.2.4 2.7 2.7 0 0 0-.7.8 5 5 0 0 0-.2 1.2 5.1 5.1 0 0 0 .2 1.3 2.7 2.7 0 0 0 .7.8 2 2 0 0 0 1.1.3 2.4 2.4 0 0 0 1.2-.3z" class="cls-1" transform="translate(-.3)"/><path d="M69.7 10.8h2a2.5 2.5 0 0 1 1.6.5 1.4 1.4 0 0 1 .6 1.2 2 2 0 0 1-.2.9c-.2.3-.3.5-.5.6l-.6.4 1.9 2.8h-1.3l-1.6-2.5h-.8v2.5h-1.1zm1.7 3.1l.7-.2a1 1 0 0 0 .5-.4 1.5 1.5 0 0 0 .1-.7.9.9 0 0 0-.3-.7l-.8-.2h-.8v2.2z" class="cls-1" transform="translate(-.3)"/><path d="M75.4 10.8h3.7v1h-2.6v1.7h2.4v.9h-2.4v1.9h2.7v.9h-3.8z" class="cls-1" transform="translate(-.3)"/><path d="M83.2 10.8h1.1v6.4h-1.1z" class="cls-1" transform="translate(-.3)"/><path d="M87.3 11.8h-2v-1h4.9v1h-1.8v5.4h-1.1z" class="cls-1" transform="translate(-.3)"/><path d="M95.1 16.9a3.8 3.8 0 0 1-1.1-1.1 4.7 4.7 0 0 1-.3-1.7 3.4 3.4 0 0 1 .4-1.8 2 2 0 0 1 1.1-1.1 3.4 3.4 0 0 1 1.8-.4 2.7 2.7 0 0 1 1.6.4 2.3 2.3 0 0 1 1.1 1.1 4.3 4.3 0 0 1 .4 1.7 4.7 4.7 0 0 1-.4 1.7 3.4 3.4 0 0 1-1.2 1.2 3.3 3.3 0 0 1-1.7.4 3.1 3.1 0 0 1-1.7-.4zm2.9-.8a2.7 2.7 0 0 0 .7-.8 5.1 5.1 0 0 0 .2-1.3 5 5 0 0 0-.2-1.2c-.1-.4-.4-.6-.7-.9a1.8 1.8 0 0 0-1.1-.3 1.5 1.5 0 0 0-1.1.4 1.8 1.8 0 0 0-.7.8 2.7 2.7 0 0 0-.3 1.2 5.1 5.1 0 0 0 .2 1.3 2.7 2.7 0 0 0 .7.8 2 2 0 0 0 1.1.3 2.1 2.1 0 0 0 1.2-.3z" class="cls-1" transform="translate(-.3)"/><path d="M101.3 10.8h1.2l3.2 5v-5h1v6.4h-1.2l-3.2-5v5h-1z" class="cls-1" transform="translate(-.3)"/><rect id="形状_1_拷贝_25" width="26.9" height="26.92" x="7" y="9.8" class="cls-2" rx="7.6" ry="7.6" data-name="形状 1 拷贝 25"/><path d="M12.7 23.3h.7v3.5h-.7v-1.4h-1.6v1.4h-.7v-3.5h.7v1.4h1.6zm4 2c0 .6-.2.9-.8.9a.8.8 0 0 1-.8-.9v-2h-.7v2a1.4 1.4 0 0 0 1.5 1.5c1 0 1.5-.5 1.5-1.6v-1.9h-.7zm8.3.4l-.8-2.4h-.6l-.8 2.4-.8-2.4h-.7l1.2 3.5h.6l.8-2.3.8 2.3h.6l1.2-3.5h-.7zm2.8-.4h1.3v-.7h-1.3v-.7h1.9v-.6h-2.6v3.5h2.6v-.7h-1.9zm2.8 1.5h.7v-3.5h-.7zM18.9 26l-.4.8h-.7l1.6-3.5h.6l1.5 3.5h-.7l-.3-.8zm.2-.6h1.1l-.5-1.2z" class="cls-1" transform="translate(-.3)"/><path d="M20.8 18.8a4.5 4.5 0 0 1-4.4-4.5h.6a3.9 3.9 0 0 0 7.7 0h.6a4.5 4.5 0 0 1-4.5 4.5z" class="cls-1" transform="translate(-.3)"/></svg>